<svg width="492" height="294" viewBox="0 0 492 294" fill="none" xmlns="http://www.w3.org/2000/svg">
<g clip-path="url(#clip0_16948_26)">
<path d="M376.687 290.675C370.388 285.355 366.562 276.952 367.565 268.77C368.569 260.589 374.783 253.068 382.845 251.331C390.906 249.594 400.095 254.403 402.544 262.274C403.891 247.099 405.444 231.289 413.516 218.366C420.824 206.665 433.483 198.293 447.203 196.795C460.922 195.297 475.367 200.954 483.923 211.777C492.48 222.601 494.575 238.335 488.582 250.761C484.168 259.915 476.034 266.727 467.513 272.269C439.977 290.027 406.951 297.249 374.511 292.605L376.687 290.675Z" fill="#F2F2F2"/>
<path d="M470.356 201.268C459.036 210.484 448.651 220.791 439.351 232.04C424.797 249.586 413.02 269.257 404.429 290.369C403.801 291.909 406.303 292.58 406.925 291.057C420.98 256.745 443.418 226.503 472.186 203.097C473.478 202.045 471.638 200.225 470.356 201.268Z" fill="white"/>
<path d="M158.383 289.23C167.034 281.923 172.289 270.38 170.911 259.144C169.533 247.907 160.997 237.577 149.925 235.19C138.853 232.804 126.231 239.41 122.868 250.22C121.018 229.378 118.885 207.662 107.798 189.913C97.7597 173.842 80.3726 162.342 61.5289 160.285C42.6853 158.228 22.8453 165.998 11.0932 180.864C-0.658882 195.729 -3.53633 217.341 4.69453 234.408C10.7579 246.98 21.9288 256.337 33.6332 263.949C70.974 288.235 117.295 298.363 161.371 291.88" fill="#F2F2F2"/>
<path d="M29.7274 166.429C45.2757 179.087 59.5397 193.244 72.313 208.695C85.0883 224.13 96.3356 240.768 105.897 258.374C111.241 268.25 116.042 278.41 120.278 288.809C121.142 290.925 117.705 291.846 116.851 289.754C109.348 271.42 100.065 253.865 89.1355 237.341C78.2592 220.877 65.8107 205.507 51.9648 191.445C44.1335 183.496 35.8708 175.983 27.2142 168.941C25.4399 167.496 27.9677 164.996 29.7274 166.429L29.7274 166.429Z" fill="white"/>
<path d="M353.166 293.356H146.752V81.6763C146.752 36.6398 183.41 0 228.469 0H271.448C316.507 0 353.166 36.6398 353.166 81.6763V293.356Z" fill="#F2F2F2"/>
<path d="M310.186 293.356H146.752V81.6763C146.707 64.4193 152.174 47.5985 162.358 33.6629C162.733 33.1515 163.107 32.6467 163.494 32.1474C168.419 25.6902 174.281 20.0035 180.886 15.2749C181.259 15.0035 181.633 14.7369 182.013 14.4703C187.54 10.6479 193.518 7.52312 199.811 5.16715C200.185 5.02556 200.566 4.8837 200.946 4.74763C206.638 2.71735 212.539 1.32662 218.538 0.601118C218.91 0.550332 219.292 0.510591 219.674 0.470849C225.521 -0.154 231.418 -0.154 237.265 0.470849C237.646 0.510591 238.028 0.550327 238.404 0.601662C244.402 1.32721 250.301 2.71777 255.992 4.74766C256.372 4.88373 256.753 5.02558 257.128 5.16744C263.344 7.4937 269.251 10.5718 274.719 14.3332C275.099 14.594 275.479 14.8606 275.854 15.1272C279.555 17.7684 283.033 20.7108 286.25 23.9245C288.83 26.5022 291.234 29.2499 293.446 32.1491C293.831 32.6467 294.205 33.1515 294.58 33.6621C304.764 47.5979 310.231 64.419 310.186 81.6763V293.356Z" fill="#CCCCCC"/>
<path d="M296.897 198.68C301.894 198.68 305.945 194.631 305.945 189.636C305.945 184.641 301.894 180.592 296.897 180.592C291.899 180.592 287.848 184.641 287.848 189.636C287.848 194.631 291.899 198.68 296.897 198.68Z" fill="#3A015C"/>
<path d="M336.256 287.016H329.323L326.024 260.287L336.257 260.288L336.256 287.016Z" fill="#FFB8B8"/>
<path d="M324.37 285.036H337.741V293.451H315.952C315.952 292.346 316.169 291.251 316.592 290.231C317.015 289.21 317.636 288.282 318.417 287.501C319.199 286.719 320.127 286.099 321.149 285.677C322.17 285.254 323.265 285.036 324.37 285.036Z" fill="#2F2E41"/>
<path d="M370.753 287.016H363.819L360.521 260.287L370.754 260.288L370.753 287.016Z" fill="#FFB8B8"/>
<path d="M358.867 285.036H372.238V293.451H350.448C350.448 292.346 350.666 291.251 351.089 290.231C351.512 289.21 352.132 288.282 352.914 287.501C353.696 286.719 354.624 286.099 355.645 285.677C356.667 285.254 357.761 285.036 358.867 285.036Z" fill="#2F2E41"/>
<path d="M301.476 191.428C300.977 190.693 300.646 189.858 300.505 188.982C300.363 188.105 300.416 187.209 300.66 186.355C300.903 185.501 301.33 184.711 301.912 184.04C302.494 183.369 303.216 182.834 304.027 182.473L327.595 117.546L339.192 123.872L312.282 185.918C312.8 187.32 312.785 188.863 312.241 190.255C311.696 191.647 310.66 192.791 309.328 193.47C307.995 194.149 306.461 194.316 305.013 193.94C303.566 193.564 302.308 192.67 301.476 191.428Z" fill="#FFB8B8"/>
<path d="M367.211 203.628C366.44 203.186 365.776 202.581 365.265 201.855C364.754 201.129 364.408 200.3 364.252 199.426C364.096 198.552 364.134 197.655 364.362 196.797C364.591 195.939 365.005 195.142 365.575 194.461L358.274 125.78L371.472 126.383L374.506 193.94C375.586 194.973 376.25 196.367 376.371 197.856C376.492 199.346 376.063 200.828 375.164 202.022C374.264 203.216 372.958 204.039 371.492 204.335C370.027 204.631 368.503 204.379 367.211 203.628Z" fill="#FFB8B8"/>
<path d="M346.156 105.52C353.827 105.52 360.046 99.3044 360.046 91.6372C360.046 83.97 353.827 77.7544 346.156 77.7544C338.485 77.7544 332.267 83.97 332.267 91.6372C332.267 99.3044 338.485 105.52 346.156 105.52Z" fill="#FFB8B8"/>
<path d="M367.122 188.007H325.247L325.298 187.682C325.373 187.195 332.761 138.823 327.312 122.999C326.765 121.443 326.813 119.741 327.447 118.219C328.081 116.697 329.255 115.464 330.744 114.755H330.745C338.533 111.09 353.483 106.576 366.101 117.53C367.958 119.169 369.407 121.217 370.336 123.512C371.264 125.807 371.646 128.287 371.45 130.755L367.122 188.007Z" fill="#3A015C"/>
<path d="M333.29 145.972L314.438 142.149L323.275 121.219C323.803 119.191 325.115 117.457 326.922 116.395C328.729 115.333 330.883 115.031 332.913 115.554C334.942 116.078 336.681 117.385 337.748 119.188C338.815 120.992 339.122 123.144 338.603 125.174L333.29 145.972Z" fill="#3A015C"/>
<path d="M357.435 153.07L356.302 127.102C355.443 122.221 358.238 117.606 362.538 116.852C366.839 116.1 371.039 119.486 371.902 124.403L376.162 148.668L357.435 153.07Z" fill="#3A015C"/>
<path d="M365.729 184.899C372.467 210.547 373.202 243.157 371.384 278.727L362.336 277.597L345.936 209.769L336.888 278.727L326.708 278.162C323.667 240.84 320.706 208.799 325.577 187.725L365.729 184.899Z" fill="#2F2E41"/>
<path d="M355.308 102.366C352.717 105.125 347.905 103.644 347.567 99.8751C347.541 99.5824 347.543 99.288 347.573 98.9957C347.747 97.3263 348.712 95.8106 348.481 94.0479C348.429 93.6092 348.265 93.1911 348.006 92.8333C345.941 90.0696 341.094 94.0694 339.145 91.5675C337.951 90.0335 339.355 87.6182 338.438 85.9036C337.228 83.6406 333.643 84.757 331.395 83.5176C328.894 82.1388 329.044 78.3032 330.69 75.9703C332.698 73.1251 336.219 71.6069 339.695 71.3881C343.172 71.1693 346.624 72.1087 349.87 73.3729C353.558 74.8094 357.215 76.7946 359.484 80.0356C362.244 83.9771 362.51 89.276 361.129 93.8848C360.29 96.6884 357.424 100.113 355.308 102.366Z" fill="#2F2E41"/>
<path d="M475.024 293.72H57.5061C57.3278 293.72 57.1571 293.648 57.0312 293.522C56.9054 293.396 56.8347 293.225 56.8347 293.047C56.8347 292.869 56.9054 292.698 57.0312 292.572C57.1571 292.446 57.3278 292.375 57.5061 292.374H475.024C475.202 292.375 475.373 292.446 475.499 292.572C475.625 292.698 475.696 292.869 475.696 293.047C475.696 293.225 475.625 293.396 475.499 293.522C475.373 293.648 475.202 293.72 475.024 293.72Z" fill="#3F3D56"/>
<path d="M265.228 232.029H191.71C190.742 232.034 189.811 231.655 189.122 230.975C188.433 230.295 188.042 229.37 188.034 228.402V64.3888C188.042 63.4211 188.433 62.4958 189.122 61.8161C189.811 61.1363 190.742 60.7574 191.71 60.7626H265.228C266.196 60.7574 267.127 61.1363 267.816 61.8161C268.505 62.4958 268.896 63.4211 268.903 64.3888V228.402C268.896 229.37 268.505 230.295 267.816 230.975C267.127 231.655 266.196 232.034 265.228 232.029Z" fill="white"/>
<path d="M268.903 113.832H188.034V114.963H268.903V113.832Z" fill="#CCCCCC"/>
<path d="M269.186 178.331H188.317V179.462H269.186V178.331Z" fill="#CCCCCC"/>
<path d="M214.614 60.7627H213.483V232.594H214.614V60.7627Z" fill="#CCCCCC"/>
<path d="M242.89 60.7627H241.759V232.594H242.89V60.7627Z" fill="#CCCCCC"/>
</g>
<defs>
<clipPath id="clip0_16948_26">
<rect width="492" height="294" fill="white"/>
</clipPath>
</defs>
</svg>
